<svg width="16" height="16" viewBox="0 0 16 16" fill="none" xmlns="http://www.w3.org/2000/svg">
<g clip-path="url(#clip0_8601_39852)">
<path d="M14.2222 2.22266H1.77778C1.30628 2.22266 0.854097 2.40996 0.520699 2.74336C0.187301 3.07675 0 3.52894 0 4.00043L0 8.00043H16V4.00043C16 3.52894 15.8127 3.07675 15.4793 2.74336C15.1459 2.40996 14.6937 2.22266 14.2222 2.22266Z" fill="#DC1F26"/>
<path d="M16 12C16 12.4715 15.8127 12.9237 15.4793 13.2571C15.1459 13.5905 14.6937 13.7778 14.2222 13.7778H1.77778C1.30628 13.7778 0.854097 13.5905 0.520699 13.2571C0.187301 12.9237 0 12.4715 0 12V8H16V12Z" fill="#EEEEEE"/>
</g>
<defs>
<clipPath id="clip0_8601_39852">
<rect width="16" height="16" fill="white"/>
</clipPath>
</defs>
</svg>
