<svg width="16" height="16" viewBox="0 0 16 16" fill="none" xmlns="http://www.w3.org/2000/svg">
<path d="M0 4.02666V5.77821H2.50133L0 4.02666ZM2.07289 13.7782H5.77778V11.184L2.07289 13.7782ZM10.2222 11.1844V13.7782H13.9267L10.2222 11.1844ZM0 10.2227V11.9742L2.50222 10.2227H0ZM13.9276 2.22266H10.2222V4.81688L13.9276 2.22266ZM16 11.9747V10.2227H13.4973L16 11.9747ZM16 5.77821V4.02666L13.4982 5.77821H16ZM5.77778 2.22266H2.07289L5.77778 4.81688V2.22266Z" fill="#00247D"/>
<path d="M11.1734 10.2223L15.4898 13.245C15.7006 13.0278 15.8521 12.7602 15.9298 12.4677L12.7232 10.2223H11.1734ZM5.77782 10.2223H4.82627L0.510269 13.2445C0.741824 13.4801 1.03871 13.6485 1.3716 13.7268L5.77782 10.6414V10.2223ZM10.2223 5.77788H11.1738L15.4898 2.75566C15.2543 2.51667 14.9558 2.34945 14.6289 2.27344L10.2223 5.35877V5.77788ZM4.82627 5.77788L0.510269 2.75566C0.299581 2.97298 0.147964 3.24057 0.0698242 3.53299L3.27649 5.77788H4.82627Z" fill="#CF1B2B"/>
<path d="M16 9.33377H9.33333V13.7782H10.2222V11.1844L13.9267 13.7782H14.2222C14.4583 13.7782 14.6921 13.7311 14.9098 13.6396C15.1274 13.5481 15.3246 13.4141 15.4898 13.2453L11.1733 10.2227H12.7231L15.9298 12.468C15.9711 12.3182 16 12.1631 16 12.0004V11.9747L13.4973 10.2227H16V9.33377ZM0 9.33377V10.2227H2.50222L0 11.9742V12.0004C0 12.4853 0.195111 12.924 0.510222 13.2449L4.82622 10.2227H5.77778V10.6418L1.37156 13.7267C1.50222 13.7578 1.63733 13.7782 1.77778 13.7782H2.07289L5.77778 11.184V13.7782H6.66667V9.33377H0ZM16 4.00043C16.0003 3.53465 15.8169 3.08752 15.4898 2.75599L11.1738 5.77821H10.2222V5.3591L14.6289 2.27377C14.4958 2.24111 14.3593 2.22396 14.2222 2.22266H13.9276L10.2222 4.81688V2.22266H9.33333V6.6671H16V5.77821H13.4982L16 4.02666V4.00043ZM5.77778 2.22266V4.81688L2.07289 2.22266H1.77778C1.54161 2.22255 1.30781 2.26968 1.09012 2.36128C0.87244 2.45287 0.675273 2.58707 0.510222 2.75599L4.82622 5.77821H3.27644L0.0697778 3.53332C0.0256801 3.68519 0.00221041 3.84231 0 4.00043L0 4.02666L2.50133 5.77821H0V6.6671H6.66667V2.22266H5.77778Z" fill="#EEEEEE"/>
<path d="M9.33333 6.6671V2.22266H6.66667V6.6671H0V9.33377H6.66667V13.7782H9.33333V9.33377H16V6.6671H9.33333Z" fill="#CF1B2B"/>
</svg>
